<svg xmlns="http://www.w3.org/2000/svg" width="900" height="600" viewBox="0 0 900 600" role="img" aria-label="Empty cart illustration">
  <defs>
    <linearGradient id="g" x1="0" x2="1" y1="0" y2="1">
      <stop offset="0" stop-color="#fa9c23" stop-opacity="0.22"/>
      <stop offset="1" stop-color="#fa9c23" stop-opacity="0.06"/>
    </linearGradient>
    <filter id="shadow" x="-20%" y="-20%" width="140%" height="140%">
      <feDropShadow dx="0" dy="10" stdDeviation="16" flood-color="#0b1720" flood-opacity="0.12"/>
    </filter>
  </defs>

  <rect width="900" height="600" fill="none"/>

  <!-- soft blob -->
  <path d="M134,392c26-74,118-158,262-176s287,37,339,121-4,190-130,226-312,33-396-8S108,466,134,392Z" fill="url(#g)"/>

  <!-- cart body -->
  <g filter="url(#shadow)">
    <path d="M290 260h350c22 0 40 18 40 40 0 7-2 13-5 19l-60 112c-7 13-21 21-36 21H350c-16 0-30-9-37-23l-63-124c-10-20 4-45 27-45Z" fill="#ffffff"/>
    <path d="M295 260h74l-28-56c-4-8-12-13-21-13h-61c-10 0-18 8-18 18 0 9 6 16 14 18l38 9 2 4Z" fill="#ffffff"/>
    <path d="M300 274h338" stroke="#232f3e" stroke-opacity="0.18" stroke-width="10" stroke-linecap="round"/>
    <path d="M332 328h290" stroke="#232f3e" stroke-opacity="0.12" stroke-width="10" stroke-linecap="round"/>
    <path d="M352 382h246" stroke="#232f3e" stroke-opacity="0.10" stroke-width="10" stroke-linecap="round"/>

    <!-- wheels -->
    <circle cx="370" cy="475" r="26" fill="#232f3e" fill-opacity="0.14"/>
    <circle cx="560" cy="475" r="26" fill="#232f3e" fill-opacity="0.14"/>
    <circle cx="370" cy="475" r="12" fill="#fa9c23" fill-opacity="0.65"/>
    <circle cx="560" cy="475" r="12" fill="#fa9c23" fill-opacity="0.65"/>
  </g>

  <!-- small decorative dots -->
  <circle cx="205" cy="210" r="6" fill="#fa9c23" fill-opacity="0.45"/>
  <circle cx="700" cy="190" r="6" fill="#fa9c23" fill-opacity="0.35"/>
  <circle cx="740" cy="430" r="6" fill="#fa9c23" fill-opacity="0.25"/>
</svg>
